:SAMPLES-PER-SECOND 30
:FULLY-SPECIFIED
:DEGREES
149
root  -66.3928 40.2225 -10.346 14.8524 33.047 9.19075
RightUpLeg  -16.8084 -2.39731 -16.0267
RightLeg  18.3325 4.55209 1.43445
RightFoot  -10.7404 -0.104776 6.03106
RightToes  -8.14909e-010 0 -3.6325e-017
Spine  14.0032 -1.45402 12.6735
Spine1  6.86335 2.63697 -11.6039
HEad  -6.90036 -20.3037 -4.02958
LeftShoulder1  0.0827552 3.25465 -27.0276
LeftArm  -4.19708 20.2088 -39.1925
LeftForeArm  34.5674 -35.8822 -6.0546
LeftHand  -0.0288826 5.86148 0.668787
RightShoulder  0.00372725 -3.46287 7.4415
RightArm  22.5592 28.468 2.77343
RightForeArm  15.0103 22.6933 4.14885
RightHand  1.45095 3.85482 17.6744
LeftUpLeg  -15.7292 3.8427 -7.40991
LeftLeg  15.2517 1.56356 0.307704
LeftFoot  -3.76425 0.107696 -1.28915
LeftToes  1.648e-009 -9.21574e-011 2.55256e-011
150
root  -66.8161 40.2521 -10.2953 15.2469 34.6501 9.69104
RightUpLeg  -17.0059 -3.69984 -15.4899
RightLeg  18.9695 4.05231 1.34418
RightFoot  -10.5958 -0.106356 5.2605
RightToes  -8.14909e-010 0 -3.6325e-017
Spine  13.6297 -1.45362 12.8545
Spine1  7.67897 2.77878 -11.8961
HEad  -6.96473 -17.7176 -3.94738
LeftShoulder1  0.0871784 3.23927 -26.7428
LeftArm  -4.079 19.4671 -39.4512
LeftForeArm  34.2938 -36.0569 -6.1161
LeftHand  -0.0202935 6.39739 1.33714
RightShoulder  0.0115271 -3.40988 7.18085
RightArm  20.8704 27.3002 1.55665
RightForeArm  13.6524 24.3277 4.47777
RightHand  2.00535 4.91669 21.9399
LeftUpLeg  -14.4906 3.15221 -7.92058
LeftLeg  15.2224 1.3047 0.272187
LeftFoot  -4.47493 0.165712 -2.32029
LeftToes  1.648e-009 -9.21574e-011 2.55256e-011
151
root  -67.198 40.2717 -10.2542 15.692 36.8156 10.3523
RightUpLeg  -16.9329 -5.87182 -15.0331
RightLeg  19.646 4.02665 1.38238
RightFoot  -10.6603 -0.100154 4.6663
RightToes  -8.14909e-010 0 -3.6325e-017
Spine  13.5203 -1.44344 12.9979
Spine1  7.812 2.78565 -11.8462
HEad  -6.91744 -16.0923 -4.1183
LeftShoulder1  0.104969 3.1874 -26.9905
LeftArm  -3.82559 18.7473 -39.1165
LeftForeArm  34.0463 -36.806 -6.33027
LeftHand  0.00133279 7.11768 2.52547
RightShoulder  0.0235711 -3.32466 6.651
RightArm  19.5138 24.9649 0.872776
RightForeArm  14.029 27.1825 5.09885
RightHand  1.94518 4.08026 23.3867
LeftUpLeg  -13.4795 2.9962 -8.44663
LeftLeg  15.8611 1.33378 0.482296
LeftFoot  -5.36425 0.230584 -3.81744
LeftToes  1.648e-009 -9.21574e-011 2.55256e-011
152
root  -67.5555 40.2825 -10.2135 16.2773 39.5438 10.883
RightUpLeg  -16.8001 -7.70747 -14.4294
RightLeg  20.1484 3.29241 1.12536
RightFoot  -10.7815 -0.0950955 4.48091
RightToes  -8.14909e-010 0 -3.6325e-017
Spine  13.0584 -1.76779 13.7347
Spine1  7.97263 2.71072 -12.7692
HEad  -7.25288 -15.0173 -3.67878
LeftShoulder1  0.0949173 3.21452 -26.6161
LeftArm  -4.5238 18.3181 -39.2007
LeftForeArm  34.4545 -37.9925 -6.62732
LeftHand  -0.0133575 6.23488 2.27196
RightShoulder  0.0300761 -3.27475 6.25052
RightArm  19.9068 22.8762 1.51817
RightForeArm  16.9543 29.0381 5.37139
RightHand  1.31771 0.302073 26.3164
LeftUpLeg  -13.2083 3.51151 -8.65566
LeftLeg  17.7097 0.918509 0.617226
LeftFoot  -6.35981 0.25216 -4.88521
LeftToes  1.648e-009 -9.21574e-011 2.55256e-011
153
root  -67.8355 40.3054 -10.2059 17.0267 42.7893 11.7296
RightUpLeg  -16.2802 -10.3753 -14.1065
RightLeg  20.4077 2.91536 0.985378
RightFoot  -10.8753 -0.0920572 4.48855
RightToes  -8.14909e-010 0 -3.6325e-017
Spine  12.4822 -1.97567 13.8405
Spine1  8.25348 2.41309 -12.5996
HEad  -7.2895 -13.7641 -3.66183
LeftShoulder1  0.0786641 3.26478 -26.6779
LeftArm  -5.09656 17.6454 -39.4228
LeftForeArm  33.9255 -38.6452 -6.84244
LeftHand  -0.0484704 4.00026 2.28421
RightShoulder  0.0308731 -3.26957 6.34375
RightArm  19.5396 20.6169 1.65833
RightForeArm  18.2388 31.4908 5.88375
RightHand  0.935843 -1.39372 27.0932
LeftUpLeg  -13.2455 3.11388 -8.77801
LeftLeg  20.3483 1.65798 1.01297
LeftFoot  -7.07392 0.207194 -4.42679
LeftToes  1.648e-009 -9.21574e-011 2.55256e-011
154
root  -68.0987 40.316 -10.1916 17.2772 46.2667 11.9561
RightUpLeg  -15.4493 -12.8365 -13.2534
RightLeg  20.3659 2.2812 0.719269
RightFoot  -11.0037 -0.0883957 4.62984
RightToes  -8.14909e-010 0 -3.6325e-017
Spine  12.2033 -2.05812 14.3946
Spine1  8.19234 2.29873 -12.4399
HEad  -7.80927 -13.1843 -3.04271
LeftShoulder1  0.11517 3.1489 -26.385
LeftArm  -5.33368 17.3681 -40.0992
LeftForeArm  31.9936 -39.3619 -7.16503
LeftHand  -0.0566495 3.81298 3.25045
RightShoulder  -0.0466849 -3.78891 7.47994
RightArm  18.0146 18.925 1.76027
RightForeArm  18.8538 32.8642 6.19362
RightHand  1.50339 0.626162 28.5463
LeftUpLeg  -13.763 3.77966 -8.04822
LeftLeg  23.9879 1.76787 1.2026
LeftFoot  -7.33442 0.193612 -4.27641
LeftToes  1.648e-009 -9.21574e-011 2.55256e-011
155
root  -68.2804 40.3323 -10.1754 17.663 49.8156 12.3571
RightUpLeg  -14.416 -15.6028 -12.6259
RightLeg  20.111 1.81046 0.545283
RightFoot  -11.113 -0.0844862 4.56458
RightToes  -8.14909e-010 0 -3.6325e-017
Spine  11.7556 -1.86875 15.0984
Spine1  8.15007 2.50917 -12.3971
HEad  -7.9745 -13.671 -2.45729
LeftShoulder1  0.229383 2.78845 -25.7995
LeftArm  -5.08297 17.0911 -41.259
LeftForeArm  30.191 -39.6542 -7.36245
LeftHand  -0.0385889 5.08281 5.64013
RightShoulder  -0.144358 -4.35897 9.18559
RightArm  16.3406 16.7055 1.88385
RightForeArm  19.4367 34.2408 6.51536
RightHand  1.97183 2.79169 27.1979
LeftUpLeg  -14.7189 4.15488 -7.32256
LeftLeg  27.9799 1.80735 1.36807
LeftFoot  -7.05339 0.178029 -3.64031
LeftToes  1.648e-009 -9.21574e-011 2.55256e-011
156
root  -68.4113 40.3383 -10.1576 17.9992 53.187 12.6829
RightUpLeg  -13.2933 -17.8539 -12.113
RightLeg  19.6522 0.861254 0.37774
RightFoot  -11.2897 -0.0787886 4.69737
RightToes  -8.14909e-010 0 -3.6325e-017
Spine  11.9941 -1.63288 15.3395
Spine1  7.32518 2.59597 -11.8358
HEad  -8.42346 -14.1326 -1.9204
LeftShoulder1  0.169573 2.98031 -26.2748
LeftArm  -4.69114 16.7308 -41.4923
LeftForeArm  29.3654 -39.4025 -7.33999
LeftHand  -0.0667545 4.3852 5.56103
RightShoulder  -0.190399 -4.58091 9.97229
RightArm  14.1488 13.1945 3.72779
RightForeArm  25.9242 35.9808 6.59081
RightHand  1.50101 1.3756 25.2824
LeftUpLeg  -15.8581 4.61745 -6.4208
LeftLeg  31.1587 0.691961 0.802544
LeftFoot  -6.54225 0.168166 -3.06353
LeftToes  1.648e-009 -9.21574e-011 2.55256e-011
